HIERARCHY
ROOT mixamorig:Hips
{
	OFFSET 0.000000 201.639420 0.000000
	CHANNELS 6 Xposition Yposition Zposition Xrotation Yrotation Zrotation
	JOINT mixamorig:Spine
	{
		OFFSET 0.006200 19.524994 -2.481800
		CHANNELS 3 Xrotation Yrotation Zrotation
		JOINT mixamorig:Spine1
		{
			OFFSET -0.000900 22.835007 -2.825400
			CHANNELS 3 Xrotation Yrotation Zrotation
			JOINT mixamorig:Spine2
			{
				OFFSET -0.020600 26.552490 -3.193300
				CHANNELS 3 Xrotation Yrotation Zrotation
				JOINT mixamorig:Neck
				{
					OFFSET -0.060000 30.701813 1.352200
					CHANNELS 3 Xrotation Yrotation Zrotation
					JOINT mixamorig:Head
					{
						OFFSET -0.087200 22.547607 3.670900
						CHANNELS 3 Xrotation Yrotation Zrotation
						JOINT mixamorig:HeadTop_End
						{
							OFFSET -0.830600 40.355194 7.893500
							CHANNELS 3 Xrotation Yrotation Zrotation
							End Site
							{
								OFFSET 0.000000 30.592346 0.000000
							}
						}
						JOINT mixamorig:RightEye
						{
							OFFSET -6.302100 18.118591 16.197100
							CHANNELS 3 Xrotation Yrotation Zrotation
							End Site
							{
								OFFSET 0.000000 30.592346 0.000000
							}
						}
						JOINT mixamorig:LeftEye
						{
							OFFSET 6.741500 18.382690 16.401899
							CHANNELS 3 Xrotation Yrotation Zrotation
							End Site
							{
								OFFSET 0.000000 30.592346 0.000000
							}
						}
					}
				}
				JOINT mixamorig:LeftShoulder
				{
					OFFSET 11.924900 18.230499 1.425400
					CHANNELS 3 Xrotation Yrotation Zrotation
					JOINT mixamorig:LeftArm
					{
						OFFSET 25.435989 -0.697632 -5.229300
						CHANNELS 3 Xrotation Yrotation Zrotation
						JOINT mixamorig:LeftForeArm
						{
							OFFSET 54.684776 0.000000 0.000000
							CHANNELS 3 Xrotation Yrotation Zrotation
							JOINT mixamorig:LeftHand
							{
								OFFSET 55.098175 0.000000 0.000000
								CHANNELS 3 Xrotation Yrotation Zrotation
								JOINT mixamorig:LeftHandMiddle1
								{
									OFFSET 23.369751 0.000000 0.000000
									CHANNELS 3 Xrotation Yrotation Zrotation
									JOINT mixamorig:LeftHandMiddle2
									{
										OFFSET 6.378677 0.000000 0.000000
										CHANNELS 3 Xrotation Yrotation Zrotation
										JOINT mixamorig:LeftHandMiddle3
										{
											OFFSET 6.148331 0.000000 0.000000
											CHANNELS 3 Xrotation Yrotation Zrotation
											JOINT mixamorig:LeftHandMiddle4
											{
												OFFSET 6.582504 0.000000 0.000000
												CHANNELS 3 Xrotation Yrotation Zrotation
												End Site
												{
													OFFSET -1.168900 6.395691 1.028606
												}
											}
										}
									}
								}
								JOINT mixamorig:LeftHandThumb1
								{
									OFFSET 7.235672 -3.848206 5.434273
									CHANNELS 3 Xrotation Yrotation Zrotation
									JOINT mixamorig:LeftHandThumb2
									{
										OFFSET 6.568451 -3.792297 3.792300
										CHANNELS 3 Xrotation Yrotation Zrotation
										JOINT mixamorig:LeftHandThumb3
										{
											OFFSET 6.063080 -3.500519 3.500518
											CHANNELS 3 Xrotation Yrotation Zrotation
											JOINT mixamorig:LeftHandThumb4
											{
												OFFSET 4.793182 -2.767334 2.767349
												CHANNELS 3 Xrotation Yrotation Zrotation
												End Site
												{
													OFFSET 0.101639 6.054260 1.275483
												}
											}
										}
									}
								}
								JOINT mixamorig:LeftHandIndex1
								{
									OFFSET 23.101074 -0.309540 4.992809
									CHANNELS 3 Xrotation Yrotation Zrotation
									JOINT mixamorig:LeftHandIndex2
									{
										OFFSET 6.226883 0.000000 0.000000
										CHANNELS 3 Xrotation Yrotation Zrotation
										JOINT mixamorig:LeftHandIndex3
										{
											OFFSET 6.094330 0.000000 0.000000
											CHANNELS 3 Xrotation Yrotation Zrotation
											JOINT mixamorig:LeftHandIndex4
											{
												OFFSET 5.482605 0.000000 0.000000
												CHANNELS 3 Xrotation Yrotation Zrotation
												End Site
												{
													OFFSET -1.427902 5.233032 0.797164
												}
											}
										}
									}
								}
								JOINT mixamorig:LeftHandRing1
								{
									OFFSET 22.299240 0.021149 -3.964172
									CHANNELS 3 Xrotation Yrotation Zrotation
									JOINT mixamorig:LeftHandRing2
									{
										OFFSET 6.321869 0.000000 0.000000
										CHANNELS 3 Xrotation Yrotation Zrotation
										JOINT mixamorig:LeftHandRing3
										{
											OFFSET 5.899796 0.000000 0.000000
											CHANNELS 3 Xrotation Yrotation Zrotation
											JOINT mixamorig:LeftHandRing4
											{
												OFFSET 6.517899 0.000000 0.000000
												CHANNELS 3 Xrotation Yrotation Zrotation
												End Site
												{
													OFFSET -1.637299 6.232208 0.980890
												}
											}
										}
									}
								}
								JOINT mixamorig:LeftHandPinky1
								{
									OFFSET 20.463791 -0.302338 -8.562233
									CHANNELS 3 Xrotation Yrotation Zrotation
									JOINT mixamorig:LeftHandPinky2
									{
										OFFSET 6.908646 0.000000 0.000000
										CHANNELS 3 Xrotation Yrotation Zrotation
										JOINT mixamorig:LeftHandPinky3
										{
											OFFSET 4.622849 0.000000 0.000000
											CHANNELS 3 Xrotation Yrotation Zrotation
											JOINT mixamorig:LeftHandPinky4
											{
												OFFSET 5.216080 0.000000 0.000000
												CHANNELS 3 Xrotation Yrotation Zrotation
												End Site
												{
													OFFSET -0.606308 5.116241 0.814926
												}
											}
										}
									}
								}
							}
						}
					}
				}
				JOINT mixamorig:RightShoulder
				{
					OFFSET -12.001300 18.284088 1.348900
					CHANNELS 3 Xrotation Yrotation Zrotation
					JOINT mixamorig:RightArm
					{
						OFFSET -25.308500 -0.751312 -5.164599
						CHANNELS 3 Xrotation Yrotation Zrotation
						JOINT mixamorig:RightForeArm
						{
							OFFSET -54.684429 0.000000 0.000000
							CHANNELS 3 Xrotation Yrotation Zrotation
							JOINT mixamorig:RightHand
							{
								OFFSET -55.150291 0.000000 0.000000
								CHANNELS 3 Xrotation Yrotation Zrotation
								JOINT mixamorig:RightHandMiddle1
								{
									OFFSET -23.317566 0.000000 0.000000
									CHANNELS 3 Xrotation Yrotation Zrotation
									JOINT mixamorig:RightHandMiddle2
									{
										OFFSET -6.378403 0.000000 0.000000
										CHANNELS 3 Xrotation Yrotation Zrotation
										JOINT mixamorig:RightHandMiddle3
										{
											OFFSET -6.148193 0.000000 0.000000
											CHANNELS 3 Xrotation Yrotation Zrotation
											JOINT mixamorig:RightHandMiddle4
											{
												OFFSET -6.583389 0.000000 0.000000
												CHANNELS 3 Xrotation Yrotation Zrotation
												End Site
												{
													OFFSET 1.171692 6.395905 1.029786
												}
											}
										}
									}
								}
								JOINT mixamorig:RightHandThumb1
								{
									OFFSET -7.190521 -3.860474 5.435846
									CHANNELS 3 Xrotation Yrotation Zrotation
									JOINT mixamorig:RightHandThumb2
									{
										OFFSET -6.567429 -3.791718 3.791708
										CHANNELS 3 Xrotation Yrotation Zrotation
										JOINT mixamorig:RightHandThumb3
										{
											OFFSET -6.062469 -3.500153 3.500166
											CHANNELS 3 Xrotation Yrotation Zrotation
											JOINT mixamorig:RightHandThumb4
											{
												OFFSET -4.792618 -2.767029 2.767022
												CHANNELS 3 Xrotation Yrotation Zrotation
												End Site
												{
													OFFSET -0.100327 6.053253 1.276754
												}
											}
										}
									}
								}
								JOINT mixamorig:RightHandIndex1
								{
									OFFSET -23.048981 -0.310791 4.992554
									CHANNELS 3 Xrotation Yrotation Zrotation
									JOINT mixamorig:RightHandIndex2
									{
										OFFSET -6.227539 0.000000 0.000000
										CHANNELS 3 Xrotation Yrotation Zrotation
										JOINT mixamorig:RightHandIndex3
										{
											OFFSET -6.095047 0.000000 0.000000
											CHANNELS 3 Xrotation Yrotation Zrotation
											JOINT mixamorig:RightHandIndex4
											{
												OFFSET -5.484772 0.000000 0.000000
												CHANNELS 3 Xrotation Yrotation Zrotation
												End Site
												{
													OFFSET 1.420593 5.237305 0.797056
												}
											}
										}
									}
								}
								JOINT mixamorig:RightHandRing1
								{
									OFFSET -22.246323 0.020569 -3.963762
									CHANNELS 3 Xrotation Yrotation Zrotation
									JOINT mixamorig:RightHandRing2
									{
										OFFSET -6.322128 0.000000 0.000000
										CHANNELS 3 Xrotation Yrotation Zrotation
										JOINT mixamorig:RightHandRing3
										{
											OFFSET -5.900024 0.000000 0.000000
											CHANNELS 3 Xrotation Yrotation Zrotation
											JOINT mixamorig:RightHandRing4
											{
												OFFSET -6.518356 0.000000 0.000000
												CHANNELS 3 Xrotation Yrotation Zrotation
												End Site
												{
													OFFSET 1.636398 6.232697 0.982186
												}
											}
										}
									}
								}
								JOINT mixamorig:RightHandPinky1
								{
									OFFSET -20.411011 -0.303314 -8.561701
									CHANNELS 3 Xrotation Yrotation Zrotation
									JOINT mixamorig:RightHandPinky2
									{
										OFFSET -6.907349 0.000000 0.000000
										CHANNELS 3 Xrotation Yrotation Zrotation
										JOINT mixamorig:RightHandPinky3
										{
											OFFSET -4.623840 0.000000 0.000000
											CHANNELS 3 Xrotation Yrotation Zrotation
											JOINT mixamorig:RightHandPinky4
											{
												OFFSET -5.218353 0.000000 0.000000
												CHANNELS 3 Xrotation Yrotation Zrotation
												End Site
												{
													OFFSET 0.602097 5.118835 0.816273
												}
											}
										}
									}
								}
							}
						}
					}
				}
			}
		}
	}
	JOINT mixamorig:LeftUpLeg
	{
		OFFSET 18.168400 -13.561905 -0.039000
		CHANNELS 3 Xrotation Yrotation Zrotation
		JOINT mixamorig:LeftLeg
		{
			OFFSET 0.577358 -80.825211 -3.695000
			CHANNELS 3 Xrotation Yrotation Zrotation
			JOINT mixamorig:LeftFoot
			{
				OFFSET -0.577356 -83.370262 -6.520700
				CHANNELS 3 Xrotation Yrotation Zrotation
				JOINT mixamorig:LeftToeBase
				{
					OFFSET 0.750401 -20.798306 25.135401
					CHANNELS 3 Xrotation Yrotation Zrotation
					JOINT mixamorig:LeftToe_End
					{
						OFFSET -0.000500 0.001200 19.917799
						CHANNELS 3 Xrotation Yrotation Zrotation
						End Site
						{
							OFFSET 0.000000 19.917805 0.000000
						}
					}
				}
			}
		}
	}
	JOINT mixamorig:RightUpLeg
	{
		OFFSET -18.162500 -13.585098 -0.041000
		CHANNELS 3 Xrotation Yrotation Zrotation
		JOINT mixamorig:RightLeg
		{
			OFFSET -0.595024 -80.945297 -3.631900
			CHANNELS 3 Xrotation Yrotation Zrotation
			JOINT mixamorig:RightFoot
			{
				OFFSET 0.595024 -83.218193 -6.561200
				CHANNELS 3 Xrotation Yrotation Zrotation
				JOINT mixamorig:RightToeBase
				{
					OFFSET -0.753601 -20.807106 25.115000
					CHANNELS 3 Xrotation Yrotation Zrotation
					JOINT mixamorig:RightToe_End
					{
						OFFSET 0.000299 0.001700 19.918200
						CHANNELS 3 Xrotation Yrotation Zrotation
						End Site
						{
							OFFSET 0.000000 19.918203 0.000000
						}
					}
				}
			}
		}
	}
}
MOTION
Frames: 4
Frame Time: 0.033333
0.271404 169.603088 -0.335577 5.365614 -64.599861 8.524428 12.805537 3.333052 -2.733696 5.184388 1.616763 -0.332050 5.159816 1.703076 -0.358521 2.366562 7.489777 -4.090281 -6.483841 36.039094 -6.797081 0.000001 0.000000 0.000000 0.000001 0.000000 0.000000 0.000001 0.000000 0.000000 -0.169400 -10.604055 -21.694911 -37.452413 3.860269 -24.912256 0.000825 -85.226213 0.000858 22.993028 -3.684901 22.753986 6.512643 6.871499 -87.274299 9.404149 6.404043 -111.556025 9.208630 6.477419 -109.813070 0.000002 0.000001 0.000001 4.891665 7.994784 1.883984 10.475062 36.544340 -16.206442 18.107180 67.043231 3.186289 0.000001 0.000001 -0.000000 7.775668 6.956312 -86.152735 10.250101 6.003560 -119.372063 9.029916 6.538646 -108.236437 0.000001 -0.000002 0.000001 3.127890 6.869508 -89.819686 9.007629 6.545907 -108.040731 8.561874 6.673730 -104.169947 0.000005 0.000002 -0.000001 1.160373 7.315411 -94.148407 8.017688 2.700472 -99.510740 10.792550 5.665893 -124.703941 -0.000001 0.000001 0.000000 0.415312 5.326906 20.166552 -13.845741 60.897680 36.267577 -0.000005 115.274646 0.000025 -13.381080 2.920798 -9.350147 6.610147 -6.940040 87.289435 9.494174 -6.467149 111.542624 9.295811 -6.532958 109.815344 0.000000 0.000001 0.000001 2.101964 -10.082994 3.633771 25.660765 -30.716706 6.844835 36.126254 -53.497843 18.680818 -0.000001 -0.000001 -0.000001 9.556160 -7.137660 86.157912 10.350157 -6.061957 119.375533 9.118078 -6.602301 108.238841 0.000005 -0.000003 -0.000003 1.946419 -7.142791 92.181121 8.379087 -6.800014 101.912303 8.643615 -6.731568 104.171641 -0.000001 0.000000 0.000001 -2.850709 -7.674950 94.127472 8.100962 -6.852412 99.572683 10.897919 -5.720975 124.707766 0.000003 -0.000000 0.000001 -45.133347 8.793596 29.721619 44.453723 -7.540178 1.575157 -0.653995 0.995070 -20.748436 -0.000056 0.000005 -0.000005 -0.000000 -0.000000 0.000000 -32.745122 -3.650726 -26.281070 61.652259 6.908732 -5.463141 -33.210890 2.080492 18.235703 -0.000012 0.000020 0.000004 0.000000 -0.000000 0.000000 
0.110182 169.435944 -0.310266 5.484446 -64.722326 8.467339 12.787375 3.354445 -2.773976 5.176166 1.627781 -0.347834 5.151334 1.714111 -0.374377 2.328279 7.481383 -3.951219 -6.751411 36.120970 -6.653311 -0.000000 -0.000001 0.000000 -0.000000 -0.000001 0.000000 -0.000000 -0.000001 0.000000 -0.143176 -10.526889 -21.409469 -37.321287 3.815356 -24.965316 0.000474 -85.220250 0.000526 22.946534 -3.680638 22.705854 6.512637 6.871499 -87.274320 9.404146 6.404049 -111.556025 9.208628 6.477414 -109.813036 0.000001 -0.000000 0.000002 4.891666 7.994794 1.883998 10.475066 36.544364 -16.206447 18.107159 67.043231 3.186321 0.000001 -0.000002 -0.000000 7.775676 6.956302 -86.152741 10.250094 6.003554 -119.372049 9.029912 6.538645 -108.236444 0.000000 -0.000001 -0.000001 3.127876 6.869506 -89.819679 9.007624 6.545909 -108.040731 8.561879 6.673725 -104.169927 -0.000000 0.000002 0.000002 1.160390 7.315406 -94.148414 8.017680 2.700466 -99.510720 10.792538 5.665901 -124.703955 -0.000003 0.000000 0.000001 0.411334 5.346295 20.327410 -14.190905 60.764669 36.352777 0.000095 115.533442 -0.000086 -13.342979 2.687021 -9.097778 6.610155 -6.940036 87.289435 9.494180 -6.467123 111.542631 9.295800 -6.532936 109.815351 -0.000002 -0.000001 -0.000001 2.101970 -10.082992 3.633748 25.660756 -30.716723 6.844828 36.126278 -53.497860 18.680847 -0.000001 -0.000000 -0.000001 9.556156 -7.137686 86.157912 10.350193 -6.061946 119.375546 9.118075 -6.602305 108.238827 0.000003 0.000003 0.000001 1.946419 -7.142801 92.181121 8.379081 -6.800030 101.912324 8.643624 -6.731565 104.171655 0.000001 0.000002 0.000003 -2.850699 -7.674956 94.127486 8.100948 -6.852409 99.572663 10.897904 -5.720981 124.707780 -0.000002 0.000004 -0.000000 -45.209954 8.547381 29.706969 44.809408 -7.441246 1.980299 -0.923204 1.062699 -21.088515 -0.000047 0.000005 -0.000005 -0.000000 0.000000 0.000000 -32.755709 -3.540674 -26.063061 61.827378 7.047320 -5.360058 -33.322591 1.894825 18.083276 -0.000031 0.000000 0.000002 -0.000000 0.000000 -0.000000 
-0.152469 169.183640 -0.285867 5.540309 -64.735502 8.376061 12.849176 3.356823 -2.815823 5.207213 1.630495 -0.366720 5.182336 1.717134 -0.393251 2.239421 7.480734 -3.862654 -7.163981 36.140071 -6.333888 -0.000001 -0.000001 -0.000000 -0.000001 -0.000001 -0.000000 -0.000001 -0.000001 -0.000000 -0.124813 -10.475620 -21.199485 -37.261233 3.455063 -24.923034 -0.000036 -84.963298 -0.000058 22.702955 -3.623057 22.736074 6.512648 6.871505 -87.274334 9.404144 6.404058 -111.556025 9.208631 6.477421 -109.813056 0.000005 -0.000002 0.000000 4.891672 7.994793 1.883988 10.475045 36.544306 -16.206437 18.107163 67.043231 3.186305 0.000000 0.000000 0.000000 7.775676 6.956321 -86.152741 10.250109 6.003557 -119.372036 9.029908 6.538637 -108.236416 0.000001 -0.000002 0.000001 3.127889 6.869508 -89.819672 9.007622 6.545912 -108.040731 8.561886 6.673725 -104.169961 0.000000 -0.000001 0.000001 1.160406 7.315427 -94.148434 8.017668 2.700456 -99.510734 10.792554 5.665896 -124.703968 0.000001 -0.000000 0.000001 0.413313 5.334012 20.294623 -14.507969 60.701162 36.455114 0.000042 115.638504 -0.000046 -13.076837 2.718364 -8.716599 6.610147 -6.940040 87.289428 9.494180 -6.467124 111.542631 9.295800 -6.532933 109.815331 0.000002 -0.000001 0.000001 2.101970 -10.083004 3.633756 25.660780 -30.716713 6.844851 36.126264 -53.497853 18.680834 -0.000003 0.000001 -0.000001 9.556169 -7.137689 86.157898 10.350189 -6.061957 119.375533 9.118081 -6.602298 108.238814 0.000001 0.000001 0.000000 1.946426 -7.142801 92.181128 8.379081 -6.800011 101.912337 8.643619 -6.731561 104.171648 0.000002 -0.000000 0.000001 -2.850695 -7.674967 94.127493 8.100961 -6.852415 99.572683 10.897911 -5.720956 124.707739 -0.000001 0.000001 0.000001 -45.266307 8.119501 29.465747 45.317492 -7.099851 2.533778 -1.249099 1.136944 -21.548762 -0.000001 -0.000002 -0.000001 -0.000000 0.000000 -0.000000 -32.813151 -3.602194 -26.069051 62.092464 7.160553 -5.192904 -33.527858 1.908505 17.952580 0.000002 -0.000002 -0.000000 -0.000000 -0.000002 0.000000 
-0.457242 168.859161 -0.267376 5.664211 -64.600578 8.394512 12.998269 3.359623 -2.861973 5.280913 1.634436 -0.386778 5.256026 1.721861 -0.413348 2.068167 7.478162 -3.828607 -7.672218 36.046583 -5.931584 0.000001 -0.000000 0.000001 0.000001 -0.000000 0.000001 0.000001 -0.000000 0.000001 -0.115802 -10.452925 -21.091491 -37.270030 2.817471 -24.877823 -0.000207 -84.570514 -0.000156 22.411391 -3.503423 22.749192 6.512647 6.871491 -87.274313 9.404146 6.404051 -111.556066 9.208626 6.477419 -109.813063 0.000001 0.000002 -0.000001 4.891670 7.994776 1.883993 10.475051 36.544323 -16.206436 18.107163 67.043252 3.186329 0.000000 -0.000001 0.000001 7.775674 6.956295 -86.152714 10.250091 6.003551 -119.372049 9.029916 6.538644 -108.236403 -0.000002 0.000000 -0.000000 3.127876 6.869488 -89.819658 9.007627 6.545911 -108.040731 8.561883 6.673732 -104.169940 0.000001 0.000002 0.000003 1.160394 7.315405 -94.148427 8.017689 2.700466 -99.510699 10.792548 5.665895 -124.703968 0.000000 0.000002 0.000001 0.420855 5.281303 20.129114 -14.872148 60.478907 36.560070 -0.000005 115.712448 0.000013 -12.615085 2.872595 -8.018727 6.610149 -6.940046 87.289421 9.494176 -6.467144 111.542610 9.295809 -6.532944 109.815344 0.000000 0.000000 -0.000004 2.101976 -10.083004 3.633757 25.660749 -30.716703 6.844825 36.126257 -53.497839 18.680818 0.000001 0.000000 0.000000 9.556166 -7.137692 86.157919 10.350166 -6.061961 119.375546 9.118090 -6.602301 108.238841 0.000001 -0.000003 -0.000004 1.946428 -7.142806 92.181141 8.379068 -6.800019 101.912317 8.643620 -6.731565 104.171655 -0.000001 -0.000000 0.000000 -2.850702 -7.674962 94.127486 8.100950 -6.852412 99.572677 10.897911 -5.720966 124.707780 0.000001 -0.000002 -0.000002 -45.339387 7.494938 28.924058 45.925092 -6.516987 3.234797 -1.600940 1.232179 -22.132419 -0.000068 -0.000007 0.000002 -0.000000 0.000002 0.000000 -32.970624 -3.790921 -26.295637 62.435032 7.220578 -4.979466 -33.798529 2.068459 17.868022 -0.000011 0.000015 0.000007 -0.000000 -0.000000 -0.000000 
